<svg xmlns="http://www.w3.org/2000/svg" fill="none" viewBox="0 0 250 111.95201396232444" class="looka-1j8o68f"><defs id="SvgjsDefs1709"></defs><g id="SvgjsG1710" featurekey="nameFeature-0" transform="matrix(3.983816717197887,0,0,3.983816717197887,-5.32656483616724,-47.508614602448695)" fill="#111111"><path d="M5.6952 35.8021 l4.3048 0 l0 -19.545 l-5.4011 0 l1.0963 0.82888 l0 18.717 z M13.69 14.678999999999998 l0 22.701 c0 1.4973 -1.1765 2.6471 -2.6738 2.6471 l-9.0107 0 l0 -4.2246 l0 -22.941 l-0.66845 -0.82888 l9.6791 0 c1.4706 0 2.6738 1.2299 2.6738 2.6471 z M19.01068395721925 23.824 l4.3048 0 l0 -7.6738 l-5.4011 0 l1.0963 0.82888 l0 6.8449 z M26.97898395721925 14.599 l0 10.802 c0 1.4973 -1.1497 2.6471 -2.6471 2.6471 l-0.50802 0 l3.1551 11.898 l-3.7968 0 l-3.1551 -11.898 l-2.1123 0 l1.0963 0.82888 l0 11.07 l-3.6898 0 l0 -23.797 l0 -3.3957 l-0.66845 -0.82888 l9.6791 0.026738 c1.4973 0 2.6471 1.1497 2.6471 2.6471 z M32.085523529411766 35.8021 l4.3316 0 l0 -19.545 l-5.4011 0 l1.0695 0.82888 l0 18.717 z M40.07982352941177 14.678999999999998 l0 22.701 c0 1.4973 -1.1497 2.6471 -2.6471 2.6471 l-6.3636 0 c-1.4973 0 -2.6471 -1.1497 -2.6471 -2.6471 l0 -22.701 c0 -1.4171 1.1497 -2.6471 2.6471 -2.6471 l6.3636 0 c1.4973 0 2.6471 1.2299 2.6471 2.6471 z M45.37431390374332 23.85 l4.3048 0 l0 -7.6738 l-5.4011 0 l1.0963 0.82888 l0 6.8449 z M53.34221390374332 14.626000000000001 l0 10.802 c0 1.4171 -1.1497 2.6471 -2.6471 2.6471 l-6.4171 0 l1.0963 0.82888 l0 11.07 l-3.6898 0 l0 -27.193 l-0.66845 -0.82888 l9.6791 0 c1.4973 0 2.6471 1.1765 2.6471 2.6738 z M54.25129304812835 12.861 l-0.66845 -0.82888 l10.508 0 l0 4.2246 l-7.246 0 l1.0963 0.82888 l0 6.8182 l4.3316 0 l0 4.2513 l-5.4278 0 l1.0963 0.80214 l0 6.8449 l6.1497 0 l0 4.2246 l-9.8396 0 l0 -4.2246 l0 -7.6471 l0 -4.2513 l0 -11.043 z"></path></g></svg>
